<?xml version="1.0" standalone="no"?>
<!DOCTYPE svg PUBLIC "-//W3C//DTD SVG 20010904//EN"
 "http://www.w3.org/TR/2001/REC-SVG-20010904/DTD/svg10.dtd">
<svg version="1.0" xmlns="http://www.w3.org/2000/svg"
 width="331.000000pt" height="331.000000pt" viewBox="0 0 331.000000 331.000000"
 preserveAspectRatio="xMidYMid meet">
<metadata>
Created by potrace 1.11, written by Peter Selinger 2001-2013
</metadata>
<g transform="translate(0.000000,331.000000) scale(0.100000,-0.100000)"
fill="#000000" stroke="none">
<path d="M2695 2583 c-11 -2 -210 -45 -442 -96 -373 -82 -422 -94 -426 -112
-2 -11 -55 -270 -116 -575 -62 -305 -115 -564 -117 -575 -2 -11 -6 -32 -9 -48
-3 -15 -12 -59 -20 -97 -23 -110 -26 -130 -18 -130 5 0 28 5 53 11 25 6 52 12
60 14 8 2 110 24 225 50 183 42 303 68 355 80 311 68 448 145 561 319 93 143
131 347 79 431 -11 17 -37 40 -57 51 -21 10 -40 20 -42 21 -2 2 17 24 43 50
154 155 203 425 98 536 -52 55 -140 82 -227 70z m-177 -385 c25 -21 4 -127
-33 -168 -19 -21 -101 -55 -155 -64 -19 -3 -60 -13 -90 -21 -95 -26 -91 -31
-64 97 14 61 26 113 27 115 2 1 37 10 78 19 41 9 99 22 129 29 56 13 85 11
108 -7z m-94 -538 c16 -16 9 -87 -13 -134 -13 -25 -37 -54 -55 -66 -30 -18
-302 -88 -310 -79 -4 3 43 230 48 236 1 1 60 16 131 32 124 29 178 32 199 11z"/>
<path d="M1477 2304 c-1 -1 -44 -4 -95 -8 -239 -17 -505 -109 -646 -223 -33
-27 -80 -75 -106 -109 -46 -60 -104 -181 -114 -240 -3 -16 -8 -40 -11 -54 -12
-54 -7 -146 10 -188 33 -81 141 -142 280 -157 202 -23 225 -31 225 -81 0 -27
-7 -43 -30 -64 -36 -34 -119 -67 -193 -77 -101 -15 -318 -7 -370 13 -20 7 -29
-26 -91 -353 -4 -19 1 -23 47 -31 50 -9 225 -8 277 2 14 3 42 7 62 10 21 3 57
10 81 16 429 96 687 345 703 677 9 197 -90 279 -360 299 -153 11 -180 25 -161
81 12 33 85 73 180 99 70 19 271 28 330 14 22 -5 41 -7 44 -5 4 4 56 257 67
325 3 19 8 38 11 43 2 4 1 7 -4 8 -18 2 -134 5 -136 3z"/>
</g>
</svg>
